<svg width="29" height="30" viewBox="0 0 29 30" fill="none" xmlns="http://www.w3.org/2000/svg">
<rect width="29" height="30" rx="8" fill="#6559FF"/>
<path d="M24.8143 4.32422H15.6802C14.6689 4.32422 13.5786 4.75278 12.7177 5.68553C12.2713 6.17207 11.9999 6.71911 11.8347 7.2233C11.5806 7.99723 10.8529 8.50646 10.0537 8.50646H8.1149C7.84357 8.50142 6.41783 8.50394 5.24616 9.65853C4.05969 10.8257 4.01282 12.303 4.01036 12.5753C4.01036 15.5474 4.00542 18.5196 4.00296 21.4943C3.99309 21.7338 3.94375 23.3271 5.18696 24.5522C6.3833 25.732 7.86577 25.6715 8.10997 25.6589C12.3083 25.6589 16.509 25.6589 20.7098 25.6589C20.9219 25.6816 22.4907 25.8178 23.7216 24.58C24.5578 23.7405 24.7773 22.7321 24.8242 22.0943C24.8217 16.1701 24.8192 10.2459 24.8168 4.32422H24.8143ZM11.1686 21.5019H8.10997V12.5753H11.1686V21.4994V21.5019ZM20.7172 21.5019H15.2633V8.5115H20.7172V21.5019Z" fill="white"/>
</svg>
