<svg width="48" height="48" viewBox="0 0 48 48" fill="none" xmlns="http://www.w3.org/2000/svg">
<rect width="48" height="48" rx="8" fill="#6559FF"/>
<path d="M40.9839 7H26.0705C24.4192 7 22.6391 7.68247 21.2336 9.16786C20.5046 9.94267 20.0616 10.8138 19.7918 11.6167C19.377 12.8492 18.1889 13.6601 16.884 13.6601H13.7185C13.2755 13.6521 10.9476 13.6561 9.03463 15.4948C7.09746 17.3535 7.02093 19.7061 7.01691 20.1396C7.01691 24.8728 7.00885 29.6059 7.00483 34.3431C6.98872 34.7245 6.90816 37.2617 8.93797 39.2128C10.8912 41.0916 13.3117 40.9952 13.7104 40.9751C20.565 40.9751 27.4237 40.9751 34.2823 40.9751C34.6287 41.0113 37.1901 41.2281 39.1998 39.2569C40.565 37.9201 40.9235 36.3142 41 35.2986C40.996 25.8644 40.9919 16.4302 40.9879 7H40.9839ZM18.7044 34.3551H13.7104V20.1396H18.7044V34.3511V34.3551ZM34.2944 34.3551H25.3898V13.6682H34.2944V34.3551Z" fill="white"/>
</svg>
