<svg width="49" height="49" viewBox="0 0 49 49" fill="none" xmlns="http://www.w3.org/2000/svg">
<path d="M47.4782 1.5H27.3012C25.0672 1.5 22.6588 2.42335 20.7572 4.43298C19.771 5.48125 19.1716 6.65988 18.8065 7.74617C18.2453 9.41362 16.6379 10.5108 14.8725 10.5108H10.5897C9.99033 10.4999 6.84093 10.5053 4.25274 12.9929C1.63186 15.5077 1.52832 18.6905 1.52287 19.2771C1.52287 25.6808 1.51198 32.0845 1.50653 38.4936C1.48473 39.0096 1.37575 42.4423 4.12195 45.082C6.76463 47.6239 10.0394 47.4935 10.5788 47.4664C19.8527 47.4664 29.132 47.4664 38.4114 47.4664C38.88 47.5152 42.3454 47.8085 45.0644 45.1417C46.9115 43.333 47.3965 41.1605 47.5 39.7863C47.4946 27.0224 47.4891 14.2585 47.4837 1.5H47.4782ZM17.3353 38.5099H10.5788V19.2771H17.3353V38.5045V38.5099ZM38.4277 38.5099H26.3804V10.5216H38.4277V38.5099Z" stroke="#141233" stroke-width="3"/>
</svg>
