<svg width="44" height="44" viewBox="0 0 44 44" fill="none" xmlns="http://www.w3.org/2000/svg">
<g clip-path="url(#clip0_13086_139595)">
<path fill-rule="evenodd" clip-rule="evenodd" d="M9.75 18V26.25C9.75 27.49 10.76 28.5 12 28.5H30.75C31.99 28.5 33 27.49 33 26.25V24.99L34.53 26.32C34.84 26.59 35.32 26.56 35.59 26.25L37.56 23.98C37.83 23.67 37.8 23.19 37.48 22.92L33.8 19.73L35.52 17.75C35.71 17.53 35.76 17.21 35.64 16.95C35.52 16.68 35.25 16.51 34.96 16.51H33.01V2.25C33.01 1.01 32 0 30.76 0H12C10.76 0 9.75 1.01 9.75 2.25V9.25H2.25C1.65 9.25 1.08 9.49 0.66 9.91C0.24 10.33 0 10.9 0 11.5V34C0 34.6 0.24 35.17 0.66 35.59C1.08 36.01 1.65 36.25 2.25 36.25H5.25C5.66 36.25 6 35.91 6 35.5C6 35.09 5.66 34.75 5.25 34.75H2.25C2.05 34.75 1.86 34.67 1.72 34.53C1.58 34.39 1.5 34.2 1.5 34V31.75H42V34C42 34.2 41.92 34.39 41.78 34.53C41.64 34.67 41.45 34.75 41.25 34.75H8.25C7.84 34.75 7.5 35.09 7.5 35.5C7.5 35.91 7.84 36.25 8.25 36.25H17.7C17.58 38.26 17.06 40.86 15.14 42.25H13.87C13.46 42.25 13.12 42.59 13.12 43C13.12 43.41 13.46 43.75 13.87 43.75H29.62C30.03 43.75 30.37 43.41 30.37 43C30.37 42.59 30.03 42.25 29.62 42.25H28.35C26.43 40.86 25.91 38.26 25.79 36.25H41.24C41.84 36.25 42.41 36.01 42.83 35.59C43.25 35.17 43.49 34.6 43.49 34V11.5C43.49 10.9 43.25 10.33 42.83 9.91C42.41 9.49 41.84 9.25 41.24 9.25H34.86C34.45 9.25 34.11 9.59 34.11 10C34.11 10.41 34.45 10.75 34.86 10.75H41.24C41.44 10.75 41.63 10.83 41.77 10.97C41.91 11.11 41.99 11.3 41.99 11.5V30.25H1.5V11.5C1.5 11.3 1.58 11.11 1.72 10.97C1.86 10.83 2.05 10.75 2.25 10.75H9.75V18ZM11.25 15V2.25C11.25 1.84 11.59 1.5 12 1.5H30.75C31.16 1.5 31.5 1.84 31.5 2.25V4.5H14.25C13.84 4.5 13.5 4.84 13.5 5.25C13.5 5.66 13.84 6 14.25 6H31.5V16.5H27.51C27.29 16.5 27.09 16.59 26.94 16.76C26.8 16.92 26.73 17.14 26.76 17.36L27.82 24.73C27.86 25.02 28.07 25.26 28.35 25.34C28.63 25.42 28.94 25.34 29.13 25.11L30.85 23.13L31.5 23.69V26.25C31.5 26.66 31.16 27 30.75 27H12C11.59 27 11.25 26.66 11.25 26.25V15ZM24.3 36.25H19.21C19.09 38.15 18.62 40.51 17.27 42.25H26.24C24.89 40.51 24.42 38.15 24.3 36.25ZM3 25.5V27C3 27.41 3.34 27.75 3.75 27.75C4.16 27.75 4.5 27.41 4.5 27V25.5C4.5 25.09 4.16 24.75 3.75 24.75C3.34 24.75 3 25.09 3 25.5ZM31.27 21.5C30.96 21.23 30.48 21.26 30.21 21.57L29.08 22.88L28.38 17.99H33.32L32.19 19.3C31.92 19.61 31.95 20.09 32.27 20.36L35.95 23.55L34.97 24.68L31.29 21.49L31.27 21.5ZM4.5 23.25V13.5C4.5 13.09 4.16 12.75 3.75 12.75C3.34 12.75 3 13.09 3 13.5V23.25C3 23.66 3.34 24 3.75 24C4.16 24 4.5 23.66 4.5 23.25ZM15.75 18C15.75 17.59 15.41 17.25 15 17.25H13.5C13.09 17.25 12.75 17.59 12.75 18V19.5C12.75 19.91 13.09 20.25 13.5 20.25H15C15.41 20.25 15.75 19.91 15.75 19.5V18ZM17.25 19.5H24.75C25.16 19.5 25.5 19.16 25.5 18.75C25.5 18.34 25.16 18 24.75 18H17.25C16.84 18 16.5 18.34 16.5 18.75C16.5 19.16 16.84 19.5 17.25 19.5ZM15.75 13.5C15.75 13.09 15.41 12.75 15 12.75H13.5C13.09 12.75 12.75 13.09 12.75 13.5V15C12.75 15.41 13.09 15.75 13.5 15.75H15C15.41 15.75 15.75 15.41 15.75 15V13.5ZM17.25 15H29.25C29.66 15 30 14.66 30 14.25C30 13.84 29.66 13.5 29.25 13.5H17.25C16.84 13.5 16.5 13.84 16.5 14.25C16.5 14.66 16.84 15 17.25 15ZM15.75 9C15.75 8.59 15.41 8.25 15 8.25H13.5C13.09 8.25 12.75 8.59 12.75 9V10.5C12.75 10.91 13.09 11.25 13.5 11.25H15C15.41 11.25 15.75 10.91 15.75 10.5V9ZM17.25 10.5H29.25C29.66 10.5 30 10.16 30 9.75C30 9.34 29.66 9 29.25 9H17.25C16.84 9 16.5 9.34 16.5 9.75C16.5 10.16 16.84 10.5 17.25 10.5Z" fill="black"/>
</g>
<defs>
<clipPath id="clip0_13086_139595">
<rect width="43.5" height="43.75" fill="white"/>
</clipPath>
</defs>
</svg>
