<svg width="48" height="48" viewBox="0 0 48 48" fill="none" xmlns="http://www.w3.org/2000/svg">
<path d="M15.5673 22.9753C15.2521 24.4171 13.9659 25.5 12.4311 25.5C12.0219 25.5 11.6901 25.8316 11.6901 26.2409C11.6901 26.6502 12.0219 26.9819 12.4311 26.9819C14.7798 26.9819 16.7308 25.2473 17.0711 22.9919C18.5091 22.8364 19.8366 22.1957 20.8643 21.1467C21.1507 20.8544 21.1459 20.3852 20.8535 20.0989C20.5613 19.8127 20.0921 19.8173 19.8057 20.1096C18.8969 21.0373 17.6813 21.5482 16.3829 21.5482C13.7408 21.5482 11.5913 19.3987 11.5913 16.7566C11.5913 16.3473 11.2595 16.0156 10.8503 16.0156C10.4411 16.0156 10.1094 16.3473 10.1094 16.7566C10.1094 19.9393 12.4922 22.574 15.5673 22.9753Z" fill="black" stroke="black"/>
<path d="M18.7046 29.4031C18.7046 28.9938 18.3728 28.6621 17.9636 28.6621C14.5044 28.6621 11.6901 31.4764 11.6901 34.9356C11.6901 34.9714 11.6914 35.0072 11.692 35.0431C11.4164 35.0059 11.1359 34.985 10.8503 34.985C10.4411 34.985 10.1094 35.3167 10.1094 35.726C10.1094 36.1353 10.4411 36.4669 10.8503 36.4669C13.4924 36.4669 15.6419 38.6164 15.6419 41.2585C15.6419 41.6678 15.9737 41.9995 16.3829 41.9995C16.7921 41.9995 17.1238 41.6678 17.1238 41.2585C17.1238 38.6295 15.4975 36.3744 13.1986 35.4427C13.181 35.2749 13.172 35.105 13.172 34.9356C13.172 32.2935 15.3215 30.144 17.9636 30.144C18.3728 30.144 18.7046 29.8124 18.7046 29.4031Z" fill="black" stroke="black"/>
<path d="M44 23.0807C44 21.3938 43.3262 19.7952 42.1352 18.6195C42.3238 18.0161 42.4193 17.3919 42.4193 16.7578C42.4193 13.7076 40.2308 11.1602 37.3418 10.6C37.5626 10.0496 37.6771 9.45963 37.6771 8.85422C37.6771 6.92208 36.5031 5.25936 34.8312 4.54072C32.0457 2.32218 28.9991 1 26.6614 1C25.362 1 24.2096 1.63901 23.5 2.61866C22.7904 1.63901 21.638 1 20.3386 1C18.0009 1 14.9543 2.32218 12.1688 4.54072C10.4969 5.25936 9.32289 6.92208 9.32289 8.85422C9.32289 9.45963 9.4374 10.0496 9.6582 10.6C6.76923 11.1602 4.58072 13.7076 4.58072 16.7578C4.58072 17.3919 4.67606 18.016 4.86476 18.6195C3.67378 19.7952 3 21.3938 3 23.0807C3 24.3994 3.4099 25.6238 4.10779 26.6349C3.38254 27.6833 3 28.9063 3 30.194C3 32.475 4.24353 34.5649 6.21242 35.6668C6.17854 35.9486 6.16145 36.2329 6.16145 36.5169C6.16145 39.5937 8.16847 42.3141 11.0805 43.2412C12.3471 45.4089 14.6544 46.7422 17.1771 46.7422C19.9429 46.7422 22.341 45.1436 23.5 42.8226C24.659 45.1436 27.0571 46.7422 29.8229 46.7422C32.3456 46.7422 34.6529 45.4089 35.9195 43.2412C38.8315 42.314 40.8386 39.5936 40.8386 36.5169C40.8386 36.2329 40.8215 35.9486 40.7876 35.6668C42.7565 34.5649 44 32.475 44 30.194C44 28.9063 43.6175 27.6833 42.8922 26.6349C43.5901 25.6238 44 24.3994 44 23.0807ZM17.1771 45.2602C15.0995 45.2602 13.2064 44.1148 12.2365 42.2711C12.1403 42.0884 11.9726 41.9542 11.7733 41.9005C9.34166 41.2461 7.64337 39.0323 7.64337 36.5169C7.64337 36.1405 7.68131 35.7635 7.7561 35.3961C7.82545 35.0556 7.64871 34.7125 7.33108 34.5712C5.60029 33.8018 4.48193 32.0835 4.48193 30.194C4.48193 29.3346 4.70481 28.5131 5.13012 27.7854C6.23623 28.7607 7.68645 29.3542 9.27349 29.3542C9.6827 29.3542 10.0145 29.0226 10.0145 28.6133C10.0145 28.2039 9.6827 27.8723 9.27349 27.8723C6.63141 27.8723 4.48193 25.7228 4.48193 23.0807C4.48193 21.6585 5.10947 20.318 6.20373 19.4035C6.45072 19.197 6.53618 18.8547 6.41515 18.5564C6.18121 17.9798 6.06265 17.3747 6.06265 16.7578C6.06265 14.1158 8.21214 11.9663 10.8542 11.9663C13.4963 11.9663 15.6458 14.1158 15.6458 16.7578C15.6458 17.1671 15.9775 17.4988 16.3867 17.4988C16.796 17.4988 17.1277 17.1671 17.1277 16.7578C17.1277 13.4342 14.5292 10.7073 11.2572 10.4987C10.9606 10.0029 10.8048 9.43918 10.8048 8.85422C10.8048 7.53342 11.6066 6.39669 12.7489 5.90429C12.7931 5.89115 12.8363 5.87396 12.8781 5.85223C13.232 5.71767 13.6152 5.64337 14.0157 5.64337C15.2562 5.64337 16.3637 6.33701 16.906 7.45379C17.0848 7.822 17.5282 7.97553 17.8962 7.79661C18.2643 7.61789 18.4179 7.1746 18.2391 6.80649C17.62 5.53173 16.4484 4.61551 15.0991 4.29097C16.9903 3.13704 18.8521 2.48193 20.3386 2.48193C21.6732 2.48193 22.759 3.56769 22.759 4.90241V14.4906C22.0933 13.9624 21.2524 13.6458 20.3386 13.6458C19.9293 13.6458 19.5976 13.9774 19.5976 14.3867C19.5976 14.7961 19.9293 15.1277 20.3386 15.1277C21.6732 15.1277 22.759 16.2135 22.759 17.5482V35.3589C21.8378 34.1703 20.539 33.2732 19.0112 32.8627C18.6162 32.7569 18.2096 32.9909 18.1034 33.386C17.9972 33.7813 18.2316 34.1878 18.6267 34.2939C21.0598 34.9476 22.759 37.1617 22.759 39.6783C22.759 42.7562 20.255 45.2602 17.1771 45.2602ZM39.6689 34.5713C39.3513 34.7126 39.1745 35.0556 39.2439 35.3962C39.3187 35.7636 39.3566 36.1406 39.3566 36.517C39.3566 39.0324 37.6583 41.2462 35.2267 41.9006C35.0274 41.9543 34.8596 42.0885 34.7635 42.2712C33.7936 44.1148 31.9005 45.2602 29.8229 45.2602C26.745 45.2602 24.241 42.7562 24.241 39.6783C24.241 39.47 24.2313 39.2634 24.2132 39.0588C24.2308 38.9954 24.241 38.929 24.241 38.86V14.3867C24.241 13.052 25.3268 11.9663 26.6614 11.9663C27.0707 11.9663 27.4024 11.6346 27.4024 11.2253C27.4024 10.816 27.0707 10.4843 26.6614 10.4843C25.7476 10.4843 24.9067 10.801 24.241 11.3291V4.90241C24.241 3.56769 25.3268 2.48193 26.6614 2.48193C28.1479 2.48193 30.0097 3.13704 31.9009 4.29097C30.5516 4.61541 29.38 5.53173 28.7609 6.80649C28.5821 7.1747 28.7357 7.61799 29.1038 7.79661C29.4719 7.97543 29.9152 7.822 30.094 7.45379C30.6363 6.33701 31.7438 5.64337 32.9843 5.64337C33.3848 5.64337 33.7681 5.71767 34.1219 5.85223C34.1636 5.87396 34.2068 5.89105 34.2508 5.90419C35.3933 6.39659 36.1952 7.53333 36.1952 8.85422C36.1952 9.43918 36.0394 10.0029 35.7428 10.4987C32.4708 10.7073 29.8723 13.4342 29.8723 16.7578C29.8723 17.1671 30.204 17.4988 30.6133 17.4988C31.0225 17.4988 31.3542 17.1671 31.3542 16.7578C31.3542 14.1158 33.5037 11.9663 36.1458 11.9663C38.7879 11.9663 40.9374 14.1158 40.9374 16.7578C40.9374 17.3747 40.8188 17.9798 40.5849 18.5564C40.4639 18.8548 40.5494 19.197 40.7964 19.4035C41.8905 20.318 42.5181 21.6585 42.5181 23.0807C42.5181 25.7228 40.3686 27.8723 37.7265 27.8723C37.3173 27.8723 36.9855 28.2039 36.9855 28.6133C36.9855 29.0226 37.3173 29.3542 37.7265 29.3542C39.3136 29.3542 40.7638 28.7607 41.8699 27.7854C42.2953 28.5131 42.5181 29.3346 42.5181 30.194C42.5181 32.0835 41.3997 33.8018 39.6689 34.5713Z" fill="black" stroke="black"/>
<path d="M36.1449 24.7109C34.6101 24.7109 33.3239 23.628 33.0087 22.1863C36.0838 21.785 38.4666 19.1502 38.4666 15.9675C38.4666 15.5582 38.1349 15.2266 37.7257 15.2266C37.3165 15.2266 36.9847 15.5582 36.9847 15.9675C36.9847 18.6096 34.8352 20.7591 32.1931 20.7591C30.8947 20.7591 29.6791 20.2482 28.7703 19.3205C28.484 19.0283 28.0148 19.0235 27.7225 19.3099C27.4301 19.5963 27.4253 20.0654 27.7117 20.3577C28.7394 21.4066 30.0669 22.0474 31.5049 22.2029C31.8452 24.4583 33.7962 26.1928 36.1449 26.1928C36.5541 26.1928 36.8859 25.8612 36.8859 25.4519C36.8859 25.0426 36.5541 24.7109 36.1449 24.7109Z" fill="black" stroke="black"/>
<path d="M33.7761 33.4049C33.4906 33.4049 33.21 33.4259 32.9345 33.463C32.935 33.4272 32.9363 33.3913 32.9363 33.3555C32.9363 29.8963 30.1221 27.082 26.6628 27.082C26.2536 27.082 25.9219 27.4137 25.9219 27.823C25.9219 28.2323 26.2536 28.564 26.6628 28.564C29.3049 28.564 31.4544 30.7134 31.4544 33.3555C31.4544 33.5249 31.4454 33.6948 31.4278 33.8626C29.129 34.7943 27.5026 37.0494 27.5026 39.6784C27.5026 40.0877 27.8344 40.4194 28.2436 40.4194C28.6528 40.4194 28.9845 40.0877 28.9845 39.6784C28.9845 37.0363 31.134 34.8869 33.7761 34.8869C34.1853 34.8869 34.5171 34.5552 34.5171 34.1459C34.5171 33.7366 34.1853 33.4049 33.7761 33.4049Z" fill="black" stroke="black"/>
</svg>
