<svg width="48" height="48" viewBox="0 0 48 48" fill="none" xmlns="http://www.w3.org/2000/svg">
<path d="M4.5 16.5H43.5" stroke="black" stroke-width="2.5" stroke-miterlimit="10" stroke-linecap="round" stroke-linejoin="round"/>
<path d="M10.5 13.5C10.05 13.5 9.75 13.35 9.45 13.05C9.15 12.75 9 12.45 9 12C9 11.55 9.15 11.25 9.45 10.95L9.6 10.8C9.75 10.8 9.75 10.65 9.9 10.65C10.05 10.5 10.05 10.5 10.2 10.5C10.35 10.5 10.65 10.5 10.8 10.5C10.95 10.5 10.95 10.5 11.1 10.65C11.25 10.65 11.25 10.8 11.4 10.8L11.55 10.95C11.7 11.1 11.85 11.25 11.85 11.4C12 11.55 12 11.85 12 12C12 12.15 12 12.45 11.85 12.6C11.85 12.75 11.7 12.9 11.55 13.05C11.25 13.35 10.95 13.5 10.5 13.5Z" fill="black"/>
<path d="M40.5 7.5H7.5C5.85 7.5 4.5 8.85 4.5 10.5V37.5C4.5 39.15 5.85 40.5 7.5 40.5H40.5C42.15 40.5 43.5 39.15 43.5 37.5V10.5C43.5 8.85 42.15 7.5 40.5 7.5Z" stroke="black" stroke-width="2.5" stroke-miterlimit="10" stroke-linecap="round" stroke-linejoin="round"/>
<path d="M34.5 34.5H13.5C11.85 34.5 10.5 33.15 10.5 31.5V25.5C10.5 23.85 11.85 22.5 13.5 22.5H34.5C36.15 22.5 37.5 23.85 37.5 25.5V31.5C37.5 33.15 36.15 34.5 34.5 34.5Z" stroke="black" stroke-width="2.5" stroke-miterlimit="10" stroke-linecap="round" stroke-linejoin="round"/>
<path d="M22.5 28.5L24 30L27 27" stroke="black" stroke-width="2.5" stroke-miterlimit="10" stroke-linecap="round" stroke-linejoin="round"/>
</svg>
