<svg width="16" height="16" viewBox="0 0 16 16" fill="#fbbf24" xmlns="http://www.w3.org/2000/svg">
<path d="M9.15394 2.33977L10.3273 4.68643C10.4873 5.0131 10.9139 5.32643 11.2739 5.38643L13.4006 5.73977C14.7606 5.96643 15.0806 6.9531 14.1006 7.92643L12.4473 9.57977C12.1673 9.85977 12.0139 10.3998 12.1006 10.7864L12.5739 12.8331C12.9473 14.4531 12.0873 15.0798 10.6539 14.2331L8.66061 13.0531C8.30061 12.8398 7.70728 12.8398 7.34061 13.0531L5.34728 14.2331C3.92061 15.0798 3.05394 14.4464 3.42728 12.8331L3.90061 10.7864C3.98728 10.3998 3.83394 9.85977 3.55394 9.57977L1.90061 7.92643C0.927277 6.9531 1.24061 5.96643 2.60061 5.73977L4.72728 5.38643C5.08061 5.32643 5.50728 5.0131 5.66728 4.68643L6.84061 2.33977C7.48061 1.06643 8.52061 1.06643 9.15394 2.33977Z" stroke="none" stroke-linecap="round" stroke-linejoin="round"/>
</svg>
