<svg width="16" height="18" viewBox="0 0 16 18" fill="none" xmlns="http://www.w3.org/2000/svg">
<path d="M0.479688 9.07C1.42635 8.86333 2.15302 8.59 2.65969 8.25C3.17302 7.91667 3.47969 7.50333 3.57969 7.01C2.85969 7.01667 2.27302 6.96667 1.81969 6.86C1.36635 6.74667 1.05302 6.51667 0.879688 6.17C0.773021 5.95667 0.719688 5.70667 0.719688 5.42C0.719688 5.07333 0.793021 4.72667 0.939688 4.38C1.09302 4.03333 1.29302 3.74667 1.53969 3.52C1.79302 3.29333 2.06302 3.18 2.34969 3.18C2.70969 3.18 3.02635 3.32333 3.29969 3.61C3.57969 3.89667 3.80302 4.26333 3.96969 4.71C4.14302 5.15667 4.25302 5.62 4.29969 6.1H4.66969L4.71969 6.55L4.66969 7H4.28969C4.17635 7.72 3.80969 8.32667 3.18969 8.82C2.57635 9.31333 1.75969 9.66333 0.739688 9.87L0.479688 9.07ZM1.51969 5.67C1.62635 5.83667 1.85969 5.95 2.21969 6.01C2.58635 6.07 3.04302 6.1 3.58969 6.1C3.52302 5.56 3.37969 5.09 3.15969 4.69C2.93969 4.29 2.66302 4.08 2.32969 4.06C2.18302 4.05333 2.03969 4.11333 1.89969 4.24C1.75969 4.36667 1.64635 4.53 1.55969 4.73C1.47302 4.93 1.42969 5.12 1.42969 5.3C1.42969 5.44667 1.45969 5.57 1.51969 5.67ZM4.54375 6.1H6.62375L6.67375 6.55L6.62375 7H4.54375V6.1ZM6.52617 6.1H8.60617L8.65617 6.55L8.60617 7H6.52617V6.1ZM8.50859 6.1H10.5886L10.6386 6.55L10.5886 7H8.50859V6.1ZM10.491 6.1H12.571L12.621 6.55L12.571 7H10.491V6.1ZM12.4734 6.1H12.8734C13.5868 6.1 14.0901 6.03333 14.3834 5.9C14.6768 5.76 14.8234 5.53333 14.8234 5.22C14.8168 5.01333 14.7468 4.7 14.6134 4.28C14.4868 3.85333 14.3768 3.54667 14.2834 3.36L15.0034 2.98C15.1368 3.24 15.2668 3.59333 15.3934 4.04C15.5268 4.48 15.5934 4.86333 15.5934 5.19C15.5934 5.78333 15.3768 6.23333 14.9434 6.54C14.5101 6.84667 13.8568 7 12.9834 7H12.4734V6.1ZM13.4234 0.99L14.1334 1.7L13.4234 2.41L12.7134 1.7L13.4234 0.99ZM15.2134 0.99L15.9234 1.7L15.2134 2.41L14.5034 1.7L15.2134 0.99ZM2.79906 12.56C2.42573 13.3467 2.23906 14.0333 2.23906 14.62C2.23906 15.2533 2.42573 15.7367 2.79906 16.07C3.1724 16.4033 3.70906 16.57 4.40906 16.57C4.94906 16.57 5.39906 16.47 5.75906 16.27C6.12573 16.0767 6.39573 15.8267 6.56906 15.52C6.7424 15.22 6.82906 14.9033 6.82906 14.57C6.82906 14.0167 6.64573 13.1833 6.27906 12.07L7.01906 11.73C7.2124 12.3433 7.35573 12.8733 7.44906 13.32C7.5424 13.76 7.58906 14.1767 7.58906 14.57C7.58906 15.05 7.4624 15.5133 7.20906 15.96C6.9624 16.4067 6.59906 16.77 6.11906 17.05C5.63906 17.33 5.06906 17.47 4.40906 17.47C3.77573 17.47 3.23573 17.3433 2.78906 17.09C2.34906 16.8367 2.01573 16.5 1.78906 16.08C1.56906 15.66 1.45906 15.2 1.45906 14.7C1.45906 14.3 1.52573 13.88 1.65906 13.44C1.7924 13 1.94573 12.6 2.11906 12.24L2.79906 12.56ZM4.62906 11.18L5.33906 11.89L4.62906 12.6L3.91906 11.89L4.62906 11.18ZM10.5852 15C10.1119 15 9.7419 14.9233 9.47523 14.77C9.20857 14.61 9.01857 14.3733 8.90523 14.06C8.79857 13.7467 8.74523 13.3333 8.74523 12.82C8.74523 12.06 8.72857 11.2 8.69523 10.24C8.66857 9.27333 8.62523 8.59667 8.56523 8.21L9.36523 8.04C9.41857 8.38 9.45857 8.97667 9.48523 9.83C9.51857 10.6767 9.53523 11.4467 9.53523 12.14V12.56L9.52523 12.91C9.52523 13.2233 9.5519 13.4633 9.60523 13.63C9.65857 13.79 9.75857 13.91 9.90523 13.99C10.0586 14.0633 10.2852 14.1 10.5852 14.1H10.6352L10.6852 14.55L10.6352 15H10.5852ZM10.5498 14.1H10.7398C11.0132 14.1 11.2632 14.0233 11.4898 13.87C11.7232 13.71 11.9165 13.4767 12.0698 13.17C12.3498 12.6033 12.6398 12.15 12.9398 11.81C13.2398 11.47 13.5698 11.29 13.9298 11.27C14.2632 11.25 14.5565 11.34 14.8098 11.54C15.0698 11.7333 15.2665 11.9933 15.3998 12.32C15.5398 12.64 15.6098 12.9767 15.6098 13.33C15.6098 13.6833 15.5398 14.0067 15.3998 14.3C15.2598 14.5867 15.0532 14.8033 14.7798 14.95C14.6465 15.0167 14.5065 15.05 14.3598 15.05C13.8865 15.05 13.2065 14.7667 12.3198 14.2C11.9065 14.7333 11.3732 15 10.7198 15H10.5398L10.5498 14.1ZM12.7298 13.49C13.4898 13.9633 14.0332 14.2 14.3598 14.2C14.4398 14.2 14.4965 14.1867 14.5298 14.16C14.6498 14.1 14.7398 14 14.7998 13.86C14.8598 13.72 14.8898 13.56 14.8898 13.38C14.8898 13.0533 14.8065 12.7567 14.6398 12.49C14.4798 12.2233 14.2665 12.09 13.9998 12.09C13.8132 12.09 13.6165 12.21 13.4098 12.45C13.2032 12.6833 12.9765 13.03 12.7298 13.49Z" fill="currentColor"/>
</svg>
