<svg width="48" height="48" viewBox="0 0 48 48" fill="none" xmlns="http://www.w3.org/2000/svg">
<path d="M30.4109 20.2584C29.634 18.9087 28.1771 18 26.508 18H17.5039C15.0186 18 13.0039 20.0147 13.0039 22.5V30.9979C13.0039 35.9696 17.0342 40 22.006 40L22.0452 40.0024M11.8129 18.0005L6.5 18L6.1919 18.0104C3.85032 18.1687 2 20.1183 2 22.5V27.9975C2 32.4172 5.58283 36 10.0025 36M42 22.5C42 20.0147 39.9853 18 37.5 18L32.199 18.0005" stroke="#141233" stroke-width="2" stroke-linecap="round"/>
<circle cx="35" cy="11" r="4" stroke="#141233" stroke-width="2"/>
<circle cx="9" cy="11" r="4" stroke="#141233" stroke-width="2"/>
<circle cx="22" cy="10" r="5" stroke="#141233" stroke-width="2"/>
<path d="M34 22C40.0751 22 45 26.9249 45 33C45 39.0751 40.0751 44 34 44C27.9249 44 23 39.0751 23 33C23 26.9249 27.9249 22 34 22ZM33.8252 26.0137C33.417 26.0878 33.0946 26.4102 33.0205 26.8184L33.0049 26.998L33.0039 31.998L28 32L27.8203 32.0156C27.4123 32.0897 27.0898 32.4113 27.0156 32.8193L27 33L27.0156 33.1797C27.0898 33.5877 27.4122 33.9093 27.8203 33.9834L28 34L33.0059 33.998L33.0068 39.0068L33.0234 39.1865C33.0976 39.5946 33.4191 39.9161 33.8271 39.9902L34.0068 40.0068L34.1865 39.9902C34.5947 39.9162 34.9171 39.5946 34.9912 39.1865L35.0068 39.0068L35.0059 33.998L40.0137 34L40.1934 33.9834C40.6014 33.9093 40.9239 33.5877 40.998 33.1797L41.0137 33L40.998 32.8193C40.9238 32.4113 40.6014 32.0897 40.1934 32.0156L40.0137 32L35.0039 31.998L35.0049 26.998L34.9883 26.8184C34.9142 26.4102 34.5927 26.0878 34.1846 26.0137L34.0049 25.998L33.8252 26.0137Z" fill="#141233"/>
</svg>
